<?xml version="1.0" encoding="UTF-8" standalone="no"?>
<!-- Created with Inkscape (http://www.inkscape.org/) -->

<svg
   xmlns:svg="http://www.w3.org/2000/svg"
   xmlns="http://www.w3.org/2000/svg"
   version="1.0"
   width="683.03687"
   height="158.09579"
   id="svg2060">
  <defs
     id="defs2062" />
  <g
     transform="matrix(1.685654,0,0,1.685654,0,-0.00337267)"
     id="Layer_1">
    <g
       id="g13">
      <circle
         cx="9.1239996"
         cy="46.903999"
         r="9.1239996"
         id="circle15"
         style="fill:#ff6309" />
      <circle
         cx="74.547997"
         cy="84.667"
         r="9.1239996"
         id="circle17"
         style="fill:#ffb515" />
      <path
         d="m 52.739,24.327 c 11.361,0 20.787,8.436 22.348,19.373 l 15.632,0 C 90.009,35.106 86.446,27.096 80.489,20.779 76.674,22.722 71.983,22.759 67.998,20.459 64.01,18.156 61.696,14.072 61.474,9.792 58.643,9.132 55.718,8.79 52.739,8.79 c -5.704,0 -11.216,1.245 -16.229,3.606 l 7.826,13.555 c 2.599,-1.046 5.435,-1.624 8.403,-1.624 z"
         id="path19"
         style="fill:#ff6309" />
      <path
         d="M 75.088,50.098 C 73.531,61.039 64.103,69.48 52.739,69.48 c -2.97,0 -5.807,-0.578 -8.406,-1.626 L 36.506,81.41 c 5.012,2.362 10.526,3.608 16.232,3.608 2.981,0 5.91,-0.344 8.742,-1.004 0.218,-4.285 2.533,-8.376 6.524,-10.68 3.986,-2.302 8.679,-2.265 12.495,-0.318 5.952,-6.318 9.511,-14.327 10.219,-22.918 l -15.63,0 z"
         id="path21"
         style="fill:#c90016" />
      <path
         d="m 30.163,46.904 c 0,-7.193 3.381,-13.61 8.636,-17.747 L 30.975,15.604 c -1.835,1.282 -3.571,2.733 -5.188,4.349 -4.528,4.528 -7.775,9.995 -9.562,15.962 3.6,2.332 5.984,6.38 5.984,10.989 0,4.608 -2.384,8.657 -5.984,10.988 1.787,5.967 5.034,11.434 9.562,15.962 1.616,1.616 3.35,3.065 5.184,4.348 L 38.796,64.648 C 33.542,60.511 30.163,54.094 30.163,46.904 z"
         id="path23"
         style="fill:#ffb515" />
      <circle
         cx="74.540001"
         cy="9.1260004"
         r="9.1239996"
         id="circle25"
         style="fill:#c90016" />
    </g>
    <text
       x="103.63174"
       y="67.843208"
       id="text2819"
       xml:space="preserve"
       style="font-size:85.4267807px;font-style:normal;font-variant:normal;font-weight:normal;font-stretch:normal;fill:#000000;fill-opacity:1;stroke:none;font-family:VAGRounded BT;-inkscape-font-specification:VAGRounded BT"><tspan
         x="103.63174"
         y="67.843208"
         id="tspan2821"
         style="font-size:59.3241539px">Communtu</tspan></text>
  </g>
</svg>
