<?xml version="1.0" encoding="UTF-8" standalone="no"?>
<!-- Created with Inkscape (http://www.inkscape.org/) -->
<svg
   xmlns:dc="http://purl.org/dc/elements/1.1/"
   xmlns:cc="http://creativecommons.org/ns#"
   xmlns:rdf="http://www.w3.org/1999/02/22-rdf-syntax-ns#"
   xmlns:svg="http://www.w3.org/2000/svg"
   xmlns="http://www.w3.org/2000/svg"
   xmlns:sodipodi="http://sodipodi.sourceforge.net/DTD/sodipodi-0.dtd"
   xmlns:inkscape="http://www.inkscape.org/namespaces/inkscape"
   version="1.0"
   width="152.92085"
   height="158.09579"
   id="svg2060"
   sodipodi:version="0.32"
   inkscape:version="0.46"
   sodipodi:docname="Ubuntu-Logo-ohne-Schrfit.svg"
   inkscape:output_extension="org.inkscape.output.svg.inkscape">
  <metadata
     id="metadata2469">
    <rdf:RDF>
      <cc:Work
         rdf:about="">
        <dc:format>image/svg+xml</dc:format>
        <dc:type
           rdf:resource="http://purl.org/dc/dcmitype/StillImage" />
      </cc:Work>
    </rdf:RDF>
  </metadata>
  <sodipodi:namedview
     inkscape:window-height="722"
     inkscape:window-width="642"
     inkscape:pageshadow="2"
     inkscape:pageopacity="0.0"
     guidetolerance="10.0"
     gridtolerance="10.0"
     objecttolerance="10.0"
     borderopacity="1.0"
     bordercolor="#666666"
     pagecolor="#ffffff"
     id="base"
     showgrid="false"
     inkscape:zoom="0.89084708"
     inkscape:cx="309.19403"
     inkscape:cy="79.047897"
     inkscape:window-x="0"
     inkscape:window-y="25"
     inkscape:current-layer="Layer_1" />
  <defs
     id="defs2062">
    <inkscape:perspective
       sodipodi:type="inkscape:persp3d"
       inkscape:vp_x="0 : 79.047897 : 1"
       inkscape:vp_y="0 : 1000 : 0"
       inkscape:vp_z="607.28717 : 79.047897 : 1"
       inkscape:persp3d-origin="303.64359 : 52.698598 : 1"
       id="perspective2471" />
  </defs>
  <g
     id="Layer_1"
     transform="matrix(1.685654,0,0,1.685654,0,-3.3726712e-3)">
    <g
       id="g13">
      <circle
         sodipodi:ry="9.1239996"
         sodipodi:rx="9.1239996"
         sodipodi:cy="46.903999"
         sodipodi:cx="9.1239996"
         id="circle15"
         style="fill:#ff6309"
         r="9.1239996"
         cy="46.903999"
         cx="9.1239996" />
      <circle
         sodipodi:ry="9.1239996"
         sodipodi:rx="9.1239996"
         sodipodi:cy="84.667"
         sodipodi:cx="74.547997"
         id="circle17"
         style="fill:#ffb515"
         r="9.1239996"
         cy="84.667"
         cx="74.547997" />
      <path
         id="path19"
         style="fill:#ff6309"
         d="M 52.739,24.327 C 64.1,24.327 73.526,32.763 75.087,43.7 L 90.719,43.7 C 90.009,35.106 86.446,27.096 80.489,20.779 C 76.674,22.722 71.983,22.759 67.998,20.459 C 64.01,18.156 61.696,14.072 61.474,9.792 C 58.643,9.132 55.718,8.79 52.739,8.79 C 47.035,8.79 41.523,10.035 36.51,12.396 L 44.336,25.951 C 46.935,24.905 49.771,24.327 52.739,24.327 z" />
      <path
         id="path21"
         style="fill:#c90016"
         d="M 75.088,50.098 C 73.531,61.039 64.103,69.48 52.739,69.48 C 49.769,69.48 46.932,68.902 44.333,67.854 L 36.506,81.41 C 41.518,83.772 47.032,85.018 52.738,85.018 C 55.719,85.018 58.648,84.674 61.48,84.014 C 61.698,79.729 64.013,75.638 68.004,73.334 C 71.99,71.032 76.683,71.069 80.499,73.016 C 86.451,66.698 90.01,58.689 90.718,50.098 L 75.088,50.098 z" />
      <path
         id="path23"
         style="fill:#ffb515"
         d="M 30.163,46.904 C 30.163,39.711 33.544,33.294 38.799,29.157 L 30.975,15.604 C 29.14,16.886 27.404,18.337 25.787,19.953 C 21.259,24.481 18.012,29.948 16.225,35.915 C 19.825,38.247 22.209,42.295 22.209,46.904 C 22.209,51.512 19.825,55.561 16.225,57.892 C 18.012,63.859 21.259,69.326 25.787,73.854 C 27.403,75.47 29.137,76.919 30.971,78.202 L 38.796,64.648 C 33.542,60.511 30.163,54.094 30.163,46.904 z" />
      <circle
         sodipodi:ry="9.1239996"
         sodipodi:rx="9.1239996"
         sodipodi:cy="9.1260004"
         sodipodi:cx="74.540001"
         id="circle25"
         style="fill:#c90016"
         r="9.1239996"
         cy="9.1260004"
         cx="74.540001" />
    </g>
  </g>
</svg>
